<svg xmlns="http://www.w3.org/2000/svg" width="160" height="60" viewBox="0 0 160 60" role="img"><path d="M44,36 L44,38 L46,38 L46,42 L44,42 L44,44 L20,44 L20,42 L18,42 L18,18 L20,18 L20,16 L30,16 L30,18 L32,18 L32,36 L44,36 Z M20,18 L20,22 L22,22 L22,20 L24,20 L24,18 L20,18 Z M76,18 L76,20 L78,20 L78,40 L76,40 L76,42 L74,42 L74,44 L54,44 L54,42 L52,42 L52,40 L50,40 L50,20 L52,20 L52,22 L54,22 L54,20 L56,20 L56,18 L54,18 L54,16 L74,16 L74,18 L76,18 Z M64,36 L70,36 L70,22 L64,22 L64,36 Z M108,16 L108,18 L110,18 L110,20 L108,20 L108,22 L96,22 L96,36 L102,36 L102,32 L100,32 L100,30 L98,30 L98,28 L100,28 L100,26 L108,26 L108,28 L110,28 L110,40 L108,40 L108,42 L106,42 L106,44 L86,44 L86,42 L84,42 L84,40 L82,40 L82,20 L84,20 L84,22 L86,22 L86,20 L88,20 L88,18 L86,18 L86,16 L108,16 Z M140,18 L140,20 L142,20 L142,40 L140,40 L140,42 L138,42 L138,44 L118,44 L118,42 L116,42 L116,40 L114,40 L114,20 L116,20 L116,22 L118,22 L118,20 L120,20 L120,18 L118,18 L118,16 L138,16 L138,18 L140,18 Z M128,36 L134,36 L134,22 L128,22 L128,36 Z"/></svg>